<svg width="193" height="176" viewBox="0 0 193 176" fill="none" xmlns="http://www.w3.org/2000/svg">
<circle cx="85" cy="91" r="85" fill="#FFEFD6"/>
<path d="M36 38.9517L114.393 0L192.786 38.9514V44.0961L114.393 83.0475L36 44.2189V38.9517Z" fill="#EFC15E"/>
<path d="M36 38.9518L114.393 77.9032L192.786 38.9518V116.977L114.148 155.929L36 116.977V38.9518Z" fill="#E7B955"/>
<path d="M114.393 155.806V77.9034L36.4898 39.1964H36V116.977L114.148 155.928L114.393 155.806Z" fill="#DBAF51"/>
<path d="M67.9697 23.1504L146.24 62.1019L162.164 54.2626L83.6482 15.3115L67.9697 23.1504Z" fill="#F7E0AF"/>
<path d="M146.24 62.1021L162.164 54.2628V78.7605L157.877 78.0256L153.345 83.5376L146.24 83.0477C146.24 83.0474 146.24 62.1021 146.24 62.1021Z" fill="#F1D599"/>
<path d="M98.2248 109.015L71.7671 95.7866C70.2973 95.0517 69.0723 95.9092 69.0723 97.7466V115.508C69.0723 117.345 70.297 119.427 71.7671 120.162L98.3473 133.391C99.8171 134.126 101.042 133.268 101.042 131.431V113.547C100.919 111.71 99.6946 109.751 98.2248 109.015ZM92.2227 123.592L75.3191 115.14C74.5842 114.772 73.9719 113.67 73.9719 112.69C73.9719 111.71 74.5842 111.22 75.3191 111.588L92.2227 120.039C92.9576 120.407 93.57 121.509 93.57 122.489C93.57 123.469 92.9576 123.959 92.2227 123.592ZM94.6725 117.467L75.3191 107.668C74.5842 107.3 73.9719 106.198 73.9719 105.218C73.9719 104.238 74.5842 103.748 75.3191 104.115L94.6725 113.915C95.4074 114.282 96.0198 115.384 96.0198 116.364C96.0201 117.467 95.4074 117.834 94.6725 117.467Z" fill="#F2F2F2"/>
</svg>
