<svg width="208" height="191" viewBox="0 0 208 191" fill="none" xmlns="http://www.w3.org/2000/svg">
<circle cx="122.123" cy="85" r="85" fill="#FFEFD6"/>
<path d="M122.623 138.869L91.9668 120.836L122.623 102.967L153.278 84.9344L183.934 102.967L153.278 120.836L122.623 138.869Z" fill="#EFC15E"/>
<path d="M91.6396 120.672V191L152.459 155.754V121.328L122.623 138.869L91.9675 120.836L91.6396 120.672Z" fill="#E7B955"/>
<path d="M91.9667 48.8688L122.622 66.9016L153.278 84.9343L122.622 102.967L91.9667 120.836L61.311 102.967L30.6553 84.9343L61.311 66.9016L91.9667 48.8688Z" fill="#A57B22"/>
<path d="M61.3115 31L91.9672 48.8689L61.3115 66.9016L30.6557 84.9344L0 66.9016L30.6557 48.8689L61.3115 31Z" fill="#EFC15E"/>
<path d="M122.623 31L91.9668 48.8689L122.623 66.9016L153.278 84.9344L183.934 66.9016L153.278 48.8689L122.623 31Z" fill="#EFC15E"/>
<path d="M91.6389 121.164V191L30.6553 155.754V120.836L61.311 138.869L91.6389 121.164Z" fill="#DBAF51"/>
<path d="M79.5993 150.899L56.2652 136.843C54.9689 136.062 53.7822 136.76 53.6495 138.447L52.3662 154.753C52.2334 156.44 53.2074 158.44 54.504 159.221L77.9505 173.286C79.2468 174.067 80.4335 173.368 80.5662 171.682L81.8584 155.263C81.8784 153.567 80.8955 151.68 79.5993 150.899ZM73.0357 163.847L58.1278 154.867C57.4797 154.476 56.9971 153.42 57.0679 152.52C57.1387 151.621 57.7363 151.215 58.3845 151.606L73.2924 160.586C73.9405 160.977 74.4231 162.033 74.3523 162.932C74.2815 163.832 73.6839 164.238 73.0357 163.847ZM75.7273 158.401L58.6677 148.007C58.0196 147.616 57.537 146.56 57.6078 145.66C57.6786 144.761 58.2762 144.355 58.9244 144.746L75.984 155.14C76.6321 155.531 77.1147 156.587 77.0439 157.487C76.9645 158.499 76.3755 158.792 75.7273 158.401Z" fill="#F2F2F2"/>
<path d="M61.3115 138.869L91.9672 120.836L61.3115 102.967L30.6557 84.9344L0 102.967L30.6557 120.836L61.3115 138.869Z" fill="#EFC15E"/>
<path d="M61.311 66.9016L30.6553 84.9343L61.311 102.967L71.1471 108.705L91.9667 96.5737V48.8688L61.311 66.9016Z" fill="#B18525"/>
<path d="M91.9668 48.8688V96.5737L112.786 108.705L122.623 102.967L153.278 84.9343L122.623 66.9016L91.9668 48.8688Z" fill="#CF9B2B"/>
</svg>
