<svg width="200" height="174" viewBox="0 0 200 174" fill="none" xmlns="http://www.w3.org/2000/svg">
<circle cx="85" cy="85" r="85" fill="#FFEFD6"/>
<path d="M81.7168 88.4517V43.1614H142.104V103.548H124.516H114.452H81.7168V88.4517Z" fill="#EFC15E"/>
<path d="M174.813 113.613V174H114.426V163.988V113.613H114.477H174.813Z" fill="#EFC15E"/>
<path d="M200 88.4515L174.813 113.613H114.477L124.516 103.548H142.104H142.129L157.226 88.4515H200Z" fill="#E7B955"/>
<path d="M200 88.4515V148.813L174.839 174H174.813V113.613L200 88.4515Z" fill="#DBAF51"/>
<path d="M167.29 18V78.3871L157.226 88.4516L142.129 103.548H142.104V43.1613L167.29 18Z" fill="#DBAF51"/>
<path d="M167.29 18L142.104 43.1613H81.7168L106.903 18H167.29Z" fill="#E7B955"/>
<path d="M124.516 103.548L114.477 113.613H114.426V163.988L104.412 174V113.613L114.451 103.574V103.548H124.516Z" fill="#DBAF51"/>
<path d="M114.452 103.548V103.573L104.412 113.613H44.0503L69.1613 88.4515H81.7167V103.548H114.452Z" fill="#E7B955"/>
<path d="M104.412 113.613V174H44V113.613H44.0503H104.412Z" fill="#EFC15E"/>
</svg>
