<svg width="49" height="38" viewBox="0 0 49 38" fill="none" xmlns="http://www.w3.org/2000/svg">
<path d="M4.70302 11.7131C5.32287 12.1448 7.1913 13.427 10.3084 15.5591C13.4256 17.6911 15.8136 19.3327 17.4725 20.484C17.6548 20.6102 18.042 20.8845 18.6343 21.3073C19.2268 21.7304 19.7191 22.0724 20.1108 22.3332C20.5028 22.5939 20.9767 22.8864 21.5329 23.2101C22.089 23.5336 22.6131 23.7769 23.1053 23.938C23.5976 24.1004 24.0533 24.1809 24.4725 24.1809H24.5275C24.9467 24.1809 25.4026 24.1003 25.8949 23.938C26.3869 23.7769 26.9115 23.5333 27.4671 23.2101C28.023 22.886 28.4968 22.5938 28.8888 22.3332C29.2808 22.0724 29.7727 21.7304 30.3654 21.3073C30.9576 20.8841 31.3453 20.6102 31.5276 20.484C33.2044 19.3327 37.4704 16.4088 44.3243 11.7125C45.6549 10.7953 46.7667 9.68856 47.6598 8.39303C48.5535 7.09806 48.9999 5.73957 48.9999 4.31832C48.9999 3.13064 48.5667 2.11397 47.7007 1.2684C46.8349 0.422643 45.8093 0 44.6248 0H4.37481C2.97126 0 1.89113 0.467734 1.13462 1.4032C0.378207 2.33886 0 3.50838 0 4.91168C0 6.04519 0.501467 7.27351 1.50392 8.59589C2.50628 9.91837 3.573 10.9575 4.70302 11.7131Z" fill="#FFB61E"/>
<path d="M46.2652 14.6006C40.2867 18.5946 35.747 21.6986 32.6485 23.9119C31.6095 24.6673 30.7666 25.257 30.1192 25.6795C29.4719 26.1024 28.611 26.5342 27.5353 26.9748C26.4599 27.416 25.4578 27.636 24.5279 27.636H24.4726C23.5429 27.636 22.5401 27.416 21.4648 26.9748C20.3895 26.5342 19.528 26.1024 18.8809 25.6795C18.2339 25.257 17.3907 24.6673 16.3518 23.9119C13.8907 22.1308 9.36084 19.0266 2.76199 14.6006C1.72267 13.9174 0.802098 13.1342 0 12.2527V33.6812C0 34.8695 0.428201 35.8856 1.28508 36.7312C2.14177 37.5772 3.1719 38 4.3751 38H44.6252C45.8281 38 46.8581 37.5772 47.7149 36.7312C48.572 35.8853 49 34.8695 49 33.6812V12.2527C48.216 13.1159 47.3048 13.8991 46.2652 14.6006Z" fill="#FFB61E"/>
</svg>
