<svg width="46" height="46" viewBox="0 0 46 46" fill="none" xmlns="http://www.w3.org/2000/svg">
<path d="M44.9688 36.3838L37.8648 29.2629C36.4498 27.8504 34.1066 27.8933 32.6423 29.3615L29.0633 32.9478C28.8372 32.8229 28.6031 32.6924 28.357 32.554C26.0969 31.2989 23.0036 29.5786 19.7485 26.3137C16.4837 23.0419 14.7657 19.9368 13.5096 17.6701C13.377 17.43 13.25 17.1984 13.1246 16.9786L15.5267 14.5747L16.7076 13.3896C18.1741 11.9193 18.2145 9.57147 16.8029 8.15487L9.69889 1.0332C8.28721 -0.381414 5.94292 -0.338499 4.47639 1.13174L2.47425 3.14995L2.52896 3.20439C1.85761 4.06296 1.29662 5.05318 0.87914 6.12103C0.494305 7.13749 0.254708 8.10745 0.145152 9.0794C-0.792883 16.8735 2.76076 23.9968 12.4049 33.6629C25.736 47.0233 36.4791 46.014 36.9426 45.9647C37.952 45.8438 38.9194 45.6021 39.9025 45.2194C40.9587 44.8059 41.946 44.2444 42.8021 43.573L42.8458 43.6119L44.8741 41.6213C46.3376 40.1513 46.3798 37.8026 44.9688 36.3838Z" fill="#FFB61E"/>
</svg>
