<svg width="39" height="53" viewBox="0 0 39 53" fill="none" xmlns="http://www.w3.org/2000/svg">
<path d="M19.5 0C8.74764 0 0 8.61065 0 19.1945C0 32.3294 17.4506 51.6122 18.1936 52.4267C18.8914 53.1918 20.1098 53.1904 20.8064 52.4267C21.5494 51.6122 39 32.3294 39 19.1945C38.9998 8.61065 30.2523 0 19.5 0ZM19.5 28.8518C14.0902 28.8518 9.68916 24.5196 9.68916 19.1945C9.68916 13.8695 14.0903 9.53732 19.5 9.53732C24.9097 9.53732 29.3107 13.8696 29.3107 19.1946C29.3107 24.5197 24.9097 28.8518 19.5 28.8518Z" fill="#FFB61E"/>
</svg>
