<svg width="31" height="31" viewBox="0 0 31 31" fill="none" xmlns="http://www.w3.org/2000/svg">
<g opacity="0.3">
<path fill-rule="evenodd" clip-rule="evenodd" d="M15.5 23.4843C11.0979 23.4843 7.51633 19.9027 7.51633 15.5C7.51633 11.0979 11.0979 7.51632 15.5 7.51632C19.9027 7.51632 23.4843 11.0979 23.4843 15.5C23.4843 19.9021 19.9021 23.4843 15.5 23.4843ZM10.8895 15.4994C10.8895 12.9582 12.9588 10.8901 15.5 10.8901C18.0418 10.8901 20.1099 12.9588 20.1099 15.4994C20.1099 18.0418 18.0424 20.1105 15.5 20.1105C12.9588 20.1105 10.8895 18.0418 10.8895 15.4994Z" fill="black"/>
<path d="M23.7409 9.16703C22.6988 9.16703 21.8514 8.31957 21.8514 7.27804C21.8514 6.23652 22.6988 5.38906 23.7409 5.38906C24.7824 5.38906 25.6299 6.23652 25.6299 7.27804C25.6299 8.31957 24.7824 9.16703 23.7409 9.16703Z" fill="black"/>
<path fill-rule="evenodd" clip-rule="evenodd" d="M31 23.18C31 27.4925 27.4925 31 23.18 31H7.82005C3.50811 31 0 27.4925 0 23.18L0 7.82005C0 3.50811 3.50811 0 7.82005 0L23.18 0C27.4925 0 31 3.50811 31 7.82005V23.18ZM7.82006 3.37376H23.18C25.6322 3.37376 27.6268 5.36839 27.6268 7.82005V23.18C27.6268 25.6322 25.6316 27.6268 23.18 27.6268H7.82006C5.3684 27.6268 3.37377 25.6316 3.37377 23.18V7.82005C3.37377 5.36839 5.3684 3.37376 7.82006 3.37376Z" fill="black"/>
</g>
</svg>
