<svg width="133" height="122" viewBox="0 0 133 122" fill="none" xmlns="http://www.w3.org/2000/svg">
<circle cx="73.5" cy="59.5" r="59.5" fill="#FFEFD6"/>
<path d="M62.0426 57.4H18.9574C18.0061 57.4 17.234 58.1599 17.234 59.1C17.234 60.0401 18.0061 60.8 18.9574 60.8H62.0426C62.9939 60.8 63.766 60.0401 63.766 59.1C63.766 58.1599 62.9939 57.4 62.0426 57.4Z" fill="#FFB61E"/>
<path d="M18.9574 47.2H36.1915C37.1428 47.2 37.9149 46.4401 37.9149 45.5C37.9149 44.5599 37.1428 43.8 36.1915 43.8H18.9574C18.0061 43.8 17.234 44.5599 17.234 45.5C17.234 46.4401 18.0061 47.2 18.9574 47.2Z" fill="#FFB61E"/>
<path d="M62.0426 71H18.9574C18.0061 71 17.234 71.7599 17.234 72.7C17.234 73.6401 18.0061 74.4 18.9574 74.4H62.0426C62.9939 74.4 63.766 73.6401 63.766 72.7C63.766 71.7599 62.9939 71 62.0426 71Z" fill="#FFB61E"/>
<path d="M62.0426 84.6H18.9574C18.0061 84.6 17.234 85.3599 17.234 86.3C17.234 87.2401 18.0061 88 18.9574 88H62.0426C62.9939 88 63.766 87.2401 63.766 86.3C63.766 85.3599 62.9939 84.6 62.0426 84.6Z" fill="#FFB61E"/>
<path d="M62.0426 98.2H18.9574C18.0061 98.2 17.234 98.9599 17.234 99.9C17.234 100.84 18.0061 101.6 18.9574 101.6H62.0426C62.9939 101.6 63.766 100.84 63.766 99.9C63.766 98.9599 62.9939 98.2 62.0426 98.2Z" fill="#FFB61E"/>
<path d="M57.3226 21.4404C56.387 20.5174 55.1256 20 53.8114 20H5C2.23858 20 0 22.2386 0 25V117C0 119.761 2.23858 122 5 122H76C78.7614 122 81 119.761 81 117V46.8873C81 45.5494 80.4638 44.2673 79.5113 43.3277L57.3226 21.4404ZM56.8723 28.7926C56.8723 27.6831 58.2103 27.1236 59.0002 27.9027L72.9469 41.6601C73.7427 42.445 73.1869 43.8 72.0691 43.8H59.3723C57.9916 43.8 56.8723 42.6807 56.8723 41.3V28.7926ZM5.94681 118.6C4.5661 118.6 3.44681 117.481 3.44681 116.1V25.9C3.44681 24.5193 4.5661 23.4 5.94681 23.4H53.4255V42.2C53.4255 44.9614 55.6641 47.2 58.4255 47.2H77.5532V116.1C77.5532 117.481 76.4339 118.6 75.0532 118.6H5.94681Z" fill="#FFB61E"/>
</svg>
