<svg width="137" height="129" viewBox="0 0 137 129" fill="none" xmlns="http://www.w3.org/2000/svg">
<circle cx="59.5" cy="69.5" r="59.5" fill="#FFEFD6"/>
<path d="M78.4999 0C46.2428 0 20 26.2428 20 58.5C20 90.7572 46.2428 117 78.4999 117C110.757 117 137 90.7569 137 58.5C137 26.2431 110.757 0 78.4999 0ZM78.4999 113.559C48.1404 113.559 23.4413 88.8593 23.4413 58.5C23.4413 28.1407 48.1404 3.44134 78.4999 3.44134C108.859 3.44134 133.558 28.1405 133.558 58.5C133.558 88.8595 108.859 113.559 78.4999 113.559Z" fill="#FFB61E"/>
<path d="M93.3185 58.5C93.3185 50.3291 86.6707 43.6813 78.4999 43.6813C70.329 43.6813 63.6812 50.3291 63.6812 58.5C63.6812 66.6712 70.3287 73.319 78.4999 73.319C86.671 73.319 93.3185 66.6712 93.3185 58.5ZM78.4999 69.8777C72.2266 69.8777 67.1225 64.7736 67.1225 58.5C67.1225 52.2264 72.2263 47.1226 78.4999 47.1226C84.7734 47.1226 89.8772 52.2264 89.8772 58.5C89.8772 64.7736 84.7731 69.8777 78.4999 69.8777Z" fill="#FFB61E"/>
<path d="M124.51 69.1294C124.509 69.1292 124.507 69.1286 124.507 69.1286C112.886 66.0277 100.387 69.3778 91.8915 77.8739C84.5781 85.187 81.0525 95.2808 82.2185 105.568L82.2188 105.568C82.2188 105.569 82.2188 105.569 82.2188 105.57C82.3195 106.448 83.0634 107.095 83.926 107.095C83.9917 107.095 84.0579 107.091 84.1242 107.083C93.9248 105.959 103.056 101.937 110.532 95.4506C117.938 89.0247 123.191 80.6519 125.724 71.2376C125.971 70.3204 125.428 69.3767 124.51 69.1294ZM108.276 92.8515C101.776 98.491 93.9305 102.126 85.4898 103.427C85.006 94.8025 88.1732 86.4592 94.3251 80.3072C101.539 73.093 111.966 70.013 121.904 72.0523C119.396 80.1062 114.711 87.2685 108.276 92.8515Z" fill="#FFB61E"/>
<path d="M32.4926 69.1286L32.4921 69.1289C32.4912 69.1292 32.4903 69.1292 32.4895 69.1294C31.5718 69.3764 31.0281 70.3204 31.275 71.2381C33.8081 80.6525 39.0618 89.025 46.4679 95.4511C53.9431 101.937 63.0746 105.96 72.875 107.084C72.9415 107.091 73.0078 107.095 73.0732 107.095C73.9358 107.095 74.68 106.448 74.7806 105.57C74.7806 105.57 74.7806 105.57 74.7806 105.569L74.7809 105.568C75.947 95.2817 72.4213 85.1876 65.1082 77.8745C56.6118 69.3778 44.1146 66.0268 32.4926 69.1286ZM71.5094 103.427C63.0686 102.126 55.2227 98.491 48.7231 92.8515C42.2884 87.2685 37.603 80.1062 35.0951 72.0523C45.0331 70.013 55.4604 73.0933 62.6746 80.3072C68.8263 86.4589 71.9934 94.8027 71.5094 103.427Z" fill="#FFB61E"/>
<path d="M112.843 23.6885C103.634 14.6022 91.4373 9.5982 78.4996 9.5982C65.5619 9.5982 53.3652 14.6022 44.1559 23.6885C34.956 32.7656 29.788 44.8754 29.6039 57.7868C29.5936 58.5175 30.0455 59.1748 30.7312 59.4266C30.9251 59.498 31.1256 59.5321 31.324 59.5321C31.8279 59.5321 32.3186 59.3107 32.6518 58.9061C42.9073 46.4714 60.0466 39.0475 78.4993 39.0475C96.952 39.0475 114.091 46.4714 124.347 58.9061C124.812 59.4699 125.582 59.6778 126.267 59.4263C126.953 59.1745 127.405 58.5172 127.395 57.7865C127.211 44.8754 122.043 32.7656 112.843 23.6885ZM78.4996 35.6064C60.9178 35.6064 44.4257 42.0429 33.365 53.0262C34.5801 42.8488 39.1737 33.439 46.5731 26.1382C55.134 17.6914 66.4724 13.0395 78.4999 13.0395C90.5273 13.0395 101.866 17.6914 110.426 26.1382C117.826 33.439 122.419 42.8488 123.635 53.0262C112.573 42.0429 96.0814 35.6064 78.4996 35.6064Z" fill="#FFB61E"/>
</svg>
