<svg width="115" height="111" viewBox="0 0 115 111" fill="none" xmlns="http://www.w3.org/2000/svg">
<circle cx="67" cy="48" r="48" fill="#FFEFD6"/>
<path d="M43.5186 99.952C44.2764 98.9255 44.686 97.6889 44.686 96.3886C44.686 93.0717 41.9876 90.3731 38.6705 90.3731H9.45279C7.84524 90.3731 6.33463 90.9987 5.19905 92.1347C4.06296 93.2704 3.43733 94.7811 3.43733 96.3886C3.43733 97.7205 3.87321 98.9521 4.60866 99.9499C1.87189 101.389 0 104.259 0 107.56V109.279C0 110.228 0.769657 110.998 1.71875 110.998H46.4046C47.3537 110.998 48.1233 110.228 48.1233 109.279V107.56C48.1233 104.261 46.2533 101.392 43.5186 99.952ZM7.62954 94.565C8.11612 94.0783 8.76374 93.8103 9.45279 93.8103H38.6705C40.0921 93.8103 41.2485 94.9669 41.2485 96.3883C41.2485 97.0775 40.9804 97.725 40.4936 98.2117C40.007 98.6985 39.3594 98.9664 38.6704 98.9664H9.45279C8.03121 98.9664 6.87484 97.8099 6.87484 96.3884C6.87484 95.6994 7.14279 95.0518 7.62954 94.565ZM3.43733 107.56C3.43733 104.717 5.75043 102.404 8.59342 102.404H39.5299C42.3729 102.404 44.686 104.717 44.686 107.56H3.43733Z" fill="#FFB61E"/>
<path d="M86.4005 95.2092C85.8168 94.3046 85.1203 93.5047 84.3302 92.8316L76.2993 85.8272C76.2368 85.733 76.1643 85.6436 76.0812 85.5606C75.9417 85.4212 75.7835 85.3124 75.6155 85.2309L48.2792 61.3855C49.1994 60.4235 49.7061 59.1655 49.7061 57.8278C49.7061 56.4497 49.1697 55.1546 48.1947 54.1797C47.7694 53.755 47.2861 53.4211 46.7696 53.1765L48.8493 51.0968C49.4306 51.2513 50.0279 51.3304 50.6257 51.3304C52.3858 51.3302 54.1462 50.6602 55.4861 49.3203C56.7852 48.0214 57.5005 46.2949 57.5005 44.4588C57.5005 42.6226 56.7852 40.8961 55.4863 39.5972L40.903 25.0142C39.6042 23.7153 37.8775 23 36.0409 23C34.2051 23 32.4789 23.7153 31.1802 25.0142C29.3852 26.8093 28.7943 29.3581 29.4037 31.6512L8.65409 52.4008C8.08071 52.2484 7.48413 52.1679 6.87466 52.1679C5.03766 52.1679 3.31186 52.8828 2.01403 54.1804C-0.666532 56.861 -0.666532 61.2227 2.01403 63.9035L16.5971 78.4868C17.9376 79.8271 19.6981 80.4973 21.4586 80.4973C23.2193 80.4973 24.9798 79.8271 26.3203 78.4868C28.1153 76.6916 28.7062 74.143 28.0968 71.8498L30.1722 69.7743C30.4216 70.295 30.76 70.7756 31.1804 71.1958C32.1542 72.1697 33.449 72.7061 34.8267 72.7061C36.1631 72.7061 37.4205 72.2003 38.3839 71.2811L62.3271 98.7906C62.3931 98.8937 62.4701 98.9919 62.5602 99.0819C62.5909 99.1127 62.6236 99.1407 62.6561 99.1685L69.7908 107.366C69.9681 107.575 70.1577 107.781 70.3545 107.978C72.3141 109.937 74.9024 111 77.6197 111C78.0987 111 78.5822 110.967 79.0664 110.9C82.3026 110.452 85.0995 108.516 86.7396 105.588C88.5362 102.378 88.4025 98.3035 86.4005 95.2092ZM33.611 27.4449C34.2606 26.7954 35.1237 26.4375 36.041 26.4375C36.9595 26.4375 37.8232 26.7954 38.4725 27.4449L53.0558 42.0281C53.7053 42.6776 54.063 43.5409 54.063 44.4589C54.063 45.3769 53.7053 46.2403 53.0556 46.8898C51.7159 48.2299 49.5355 48.2299 48.1957 46.8898L33.6119 32.3059L33.611 32.305C32.2709 30.9651 32.2709 28.7848 33.611 27.4449ZM23.8896 76.0562C22.5493 77.3965 20.3681 77.3966 19.0278 76.0562L4.44469 61.473C3.10424 60.1325 3.10424 57.9517 4.44469 56.6111C5.09301 55.9626 5.95616 55.6055 6.87466 55.6055C7.79299 55.6055 8.65563 55.9624 9.30378 56.6104L23.8894 71.1962C25.2297 72.536 25.2297 74.7164 23.8896 76.0562ZM31.1259 63.9595L26.3201 68.7655L11.7355 54.1808L31.1802 34.7355L45.7647 49.3203L40.9501 54.1351C40.9345 54.1498 40.9192 54.1643 40.9027 54.1806L31.1852 63.8983C31.1651 63.9181 31.1457 63.9387 31.1259 63.9595ZM37.2629 67.545C37.2594 67.5485 37.2562 67.5517 37.2527 67.5552L36.0424 68.7655C35.7177 69.09 35.2861 69.2688 34.8266 69.2688C34.3671 69.2688 33.9354 69.09 33.6109 68.7653C33.2859 68.4405 33.1069 68.0084 33.1069 67.5486C33.1069 67.0987 33.2786 66.6753 33.5903 66.356L43.3529 56.5932C44.022 55.9425 45.1038 55.9506 45.765 56.6111C46.0899 56.936 46.2688 57.368 46.2688 57.8278C46.2688 58.2872 46.0904 58.7181 45.7649 59.0428L44.5616 60.2461C44.5533 60.2542 44.5451 60.2624 44.537 60.2707L37.2629 67.545ZM40.8221 68.847L45.8453 63.8237L67.1135 82.3752L59.3526 90.1363L40.8221 68.847ZM61.6147 92.7354L69.7098 84.64L72.3063 86.9048L63.8767 95.3347L61.6147 92.7354ZM83.7405 103.908C82.6312 105.889 80.7559 107.196 78.5953 107.495C76.4396 107.793 74.3216 107.083 72.7847 105.547C72.6525 105.415 72.526 105.278 72.4081 105.138C72.4026 105.131 72.3971 105.125 72.3914 105.119L66.1386 97.9338L74.9027 89.1695L82.0785 95.4287C82.0838 95.4335 82.0893 95.4381 82.095 95.443C82.6321 95.8996 83.1087 96.4481 83.5131 97.0747C84.8128 99.0831 84.9039 101.83 83.7405 103.908Z" fill="#FFB61E"/>
</svg>
