<svg width="133" height="137" viewBox="0 0 133 137" fill="none" xmlns="http://www.w3.org/2000/svg">
<circle cx="73.5" cy="77.5" r="59.5" fill="#FFEFD6"/>
<path fill-rule="evenodd" clip-rule="evenodd" d="M82.999 80.2083C82.999 69.642 73.8674 65.8011 73.4787 65.6427C73.4674 65.6379 73.4559 65.6334 73.4443 65.6291L51.8788 57.3545V52.3435C55.3041 49.7043 57.6791 45.7919 58.2753 41.3285C59.9831 41.2093 61.5678 40.5774 62.8619 39.4749C64.5519 38.0349 65.5216 35.9392 65.5216 33.7261C65.5216 31.8894 64.8528 30.1357 63.6609 28.7691V22.149C63.6606 9.93609 53.6321 0 41.3053 0C28.9785 0 18.95 9.93609 18.95 22.149V28.9426C17.7453 30.2953 17.0902 31.9604 17.0902 33.7258C17.0902 35.9397 18.0594 38.0352 19.7499 39.4753C21.0431 40.5774 22.6268 41.2086 24.3342 41.328C24.9352 45.8751 27.3794 49.9333 31.0964 52.608V57.3545L9.55425 65.6288C9.54295 65.6331 9.53164 65.6377 9.52034 65.6422C9.13144 65.8007 0 69.6415 0 80.2078V117.438C0 119.953 2.0652 121.999 4.60372 121.999H78.4785C80.9793 121.956 83 119.926 83 117.439L82.999 80.2083ZM78.396 118.425C78.9451 118.425 79.392 117.983 79.392 117.439L79.3915 92.2973V80.2083C79.3915 72.1887 72.5845 69.1516 72.1158 68.9524L59.1584 63.9807L53.4705 75.2754C52.9274 76.3529 51.8237 77.0075 50.6434 77.0075C49.4829 77.0075 48.8641 76.4633 48.0608 75.8981L46.6079 78.065L52.0008 109.629C52.0039 109.648 52.0068 109.666 52.0092 109.684C52.1393 110.619 51.8476 111.58 51.229 112.254L45.5668 118.426H65.0921V83.2319C65.0921 82.2449 65.8997 81.4448 66.8959 81.4448C67.892 81.4448 68.6997 82.2449 68.6997 83.2319V118.425H78.396ZM17.9084 83.2319V118.425H37.421L31.7595 112.254C31.1407 111.579 30.8489 110.618 30.9793 109.683C30.9809 109.672 30.9826 109.661 30.9843 109.65C30.9854 109.643 30.9865 109.636 30.9877 109.63L36.38 78.065L34.9272 75.8981C34.8423 75.9578 34.7596 76.0171 34.6783 76.0754C33.9786 76.5774 33.3791 77.0075 32.3446 77.0075C31.1666 77.0075 30.0615 76.3553 29.5173 75.2752L23.8289 63.9802L10.8816 68.9531C10.4607 69.1314 3.60804 72.1616 3.60804 80.2081V117.439C3.60804 117.983 4.05489 118.426 4.60396 118.426H14.3008V83.2319C14.3008 82.2449 15.1084 81.4448 16.1046 81.4448C17.1008 81.4448 17.9084 82.2449 17.9084 83.2319ZM50.4767 73.2141L55.7795 62.6844L50.6494 60.716L44.8394 67.821L44.0992 68.7263C46.8189 70.6397 49.1469 72.2781 50.0642 72.9237L50.4767 73.2141ZM43.7423 75.8783L45.1175 73.8274L41.4934 71.2771L37.869 73.8274L39.2442 75.8783H43.7423ZM34.7037 54.5867V57.9312L41.4934 66.2343L48.271 57.9457V54.4747C46.2085 55.3682 43.8893 55.8677 41.5244 55.8677C39.2372 55.8677 36.8952 55.4619 34.7037 54.5867ZM60.5095 36.7649C61.4018 36.0045 61.9136 34.8968 61.9138 33.7261C61.9138 31.7753 60.4997 30.0716 58.4265 29.738V37.7149C59.207 37.5891 59.9196 37.2677 60.5095 36.7649ZM20.6978 33.7258C20.6978 35.6602 22.0883 37.3778 24.1851 37.7149V29.8278C22.2964 30.2603 20.6978 31.8153 20.6978 33.7258ZM22.558 26.571C23.0489 26.4056 23.7074 26.2514 24.282 26.1862C24.6622 24.6898 26.0754 23.6773 27.6269 23.7924C34.7001 24.2956 42.3662 22.2524 48.6505 18.1851C49.9687 17.3319 51.7008 17.5654 52.748 18.6801C53.6313 19.621 54.3773 20.4079 55.0072 21.0724C57.5692 23.7752 58.2117 24.4531 58.3728 25.23C58.4268 25.49 58.4268 25.7612 58.4268 26.1232V26.1368C58.985 26.1859 59.5288 26.2903 60.0531 26.4483V22.149C60.0531 11.9069 51.6431 3.57446 41.3056 3.57446C30.968 3.57446 22.558 11.9069 22.558 22.149V26.571ZM50.3374 21.3605C43.7426 25.5449 35.5792 27.8367 27.7929 27.385V39.122C27.7929 45.9726 33.3009 52.2932 41.5247 52.293C48.8482 52.293 54.819 46.3767 54.819 39.1217V26.1497C54.5171 25.7828 53.7953 25.0202 52.5843 23.7407L52.5833 23.7397C51.9652 23.0866 51.2196 22.2989 50.3374 21.3605ZM27.2075 62.6844L32.5103 73.2141L32.6606 73.1083C33.3374 72.6319 35.8647 70.853 38.8801 68.7315L32.3285 60.7193L27.2075 62.6844ZM39.801 79.4523L34.5799 110.015L41.4931 117.55L48.4062 110.015L43.1851 79.4523H39.801Z" fill="#FFB61E"/>
</svg>
