<svg width="133" height="127" viewBox="0 0 133 127" fill="none" xmlns="http://www.w3.org/2000/svg">
<circle cx="73.5" cy="67.5" r="59.5" fill="#FFEFD6"/>
<path d="M25.8028 8.99858C39.4695 3.34641 55.2256 8.13328 63.4388 20.4326C71.652 32.732 70.0353 49.1198 59.5774 59.5772C53.7572 65.4047 45.8549 68.6728 37.619 68.6584C22.8296 68.6423 10.1103 58.1834 7.23693 43.6758C4.36359 29.1683 12.1361 14.6507 25.8028 8.99858ZM11.8615 48.2503C16.9348 60.5191 29.9697 67.4938 42.9916 64.9077C56.0134 62.3216 65.3937 50.895 65.3937 37.6188C65.4065 30.249 62.4825 23.1778 57.2685 17.9694C47.8921 8.57033 33.1812 7.10591 22.1358 14.4718C11.0902 21.8377 6.78822 35.9816 11.8615 48.2503Z" fill="#FFB61E"/>
<path d="M11.0104 11.0112C25.0169 -2.99577 47.4891 -3.73094 62.381 9.33057C77.273 22.3921 79.4751 44.7683 67.4144 60.4819L70.3015 63.3691C71.423 63.066 72.6212 63.3832 73.4456 64.2018L94.2528 85.0087C95.0716 85.8331 95.3888 87.0313 95.0853 88.1528L96.5649 89.6324C97.4837 90.551 98 91.7973 98 93.0966C98 94.3959 97.4837 95.6422 96.5649 96.5608L95.4104 95.4055L96.5609 96.5649C95.6424 97.4837 94.3963 98 93.097 98C91.7977 98 90.5516 97.4837 89.6332 96.5649L88.1532 95.0849C87.0317 95.4057 85.8245 95.0859 85.0089 94.252L64.2027 73.4455C63.3837 72.6211 63.0665 71.4229 63.3699 70.3014L60.4826 67.414C44.7694 79.4752 22.3931 77.2739 9.33127 62.3821C-3.73059 47.4902 -2.99617 25.018 11.0104 11.0112ZM91.943 94.2558C92.5886 94.8729 93.6054 94.8729 94.2512 94.2558L94.256 94.251C94.5624 93.9451 94.7344 93.5291 94.7344 93.0962C94.7344 92.6632 94.5624 92.2481 94.256 91.9422L93.0966 90.7828L90.7828 93.0966L91.943 94.2558ZM87.3178 91.9429L91.942 87.3187L91.9437 87.3178L75.7602 71.1341L71.1344 75.7595L87.3178 91.9429ZM68.8254 73.4505L73.4511 68.8251L71.1369 66.5109L71.1363 66.5118L66.5117 71.1364L68.8254 73.4505ZM65.3579 67.6714L67.6721 65.3574L65.2995 62.9848C64.9296 63.3882 64.5915 63.8101 64.201 64.2009C63.8104 64.5914 63.3887 64.9295 62.9855 65.2992L65.3579 67.6714ZM24.4825 69.3331C37.3098 74.6464 52.0745 71.7095 61.8919 61.8918C75.2755 48.4771 75.2755 26.7605 61.8919 13.3457C52.0745 3.5282 37.3098 0.591322 24.4825 5.90441C11.6552 11.2177 3.29183 23.7346 3.29183 37.6188C3.29183 51.5029 11.6554 64.0198 24.4825 69.3331Z" fill="#FFB61E"/>
</svg>
