<svg width="47" height="65" viewBox="0 0 47 65" fill="none" xmlns="http://www.w3.org/2000/svg">
<path opacity="0.2" d="M23.5 0C10.542 0 0 10.5602 0 23.5404C0 39.6493 21.0302 63.298 21.9256 64.2969C22.7666 65.2352 24.2349 65.2335 25.0744 64.2969C25.9698 63.298 47 39.6493 47 23.5404C46.9997 10.5602 36.4578 0 23.5 0ZM23.5 35.3843C16.9805 35.3843 11.6767 30.0712 11.6767 23.5404C11.6767 17.0097 16.9806 11.6967 23.5 11.6967C30.0194 11.6967 35.3232 17.0098 35.3232 23.5406C35.3232 30.0713 30.0194 35.3843 23.5 35.3843Z" fill="black"/>
</svg>
