<svg width="77" height="103" viewBox="0 0 77 103" fill="none" xmlns="http://www.w3.org/2000/svg">
<path d="M38.5 1.5C18.1116 1.5 1.5 17.9159 1.5 38.1296C1.5 44.4412 3.57704 51.3771 6.61556 58.1768C9.66252 64.9955 13.726 71.7858 17.8104 77.8353C25.9792 89.9344 34.3132 99.1899 35.0108 99.9587C36.8772 102.016 40.1266 102.012 41.9893 99.9586C42.6874 99.1892 51.0211 89.9339 59.1896 77.8353C63.274 71.7858 67.3375 64.9955 70.3844 58.1768C73.423 51.3771 75.5 44.4412 75.5 38.1296C75.4996 17.9159 58.8882 1.5 38.5 1.5ZM38.5 54.3042C29.465 54.3042 22.1392 47.0322 22.1392 38.1296C22.1392 29.2269 29.4652 21.9551 38.5 21.9551C47.5348 21.9551 54.8606 29.2271 54.8606 38.1298C54.8606 47.0324 47.5348 54.3042 38.5 54.3042Z" fill="#FFB61E" stroke="white" stroke-width="3"/>
</svg>
