<svg width="103" height="74" viewBox="0 0 103 74" fill="none" xmlns="http://www.w3.org/2000/svg">
<path fill-rule="evenodd" clip-rule="evenodd" d="M47.8896 23.4201L51.0414 4.66761C39.6847 4.8751 30.5136 14.0828 30.5136 25.4173C30.5136 28.9447 31.4876 32.3425 33.1015 35.4549L47.8896 23.4201ZM51.3705 29.4375L33.4801 36.1033C37.1987 42.3023 44.1422 46.1409 51.394 46.1409C58.6822 46.1409 65.5344 42.3023 69.2974 36.1033L51.3705 29.4375ZM54.8775 23.4201L69.6865 35.4549C71.3473 32.3684 72.3004 28.9447 72.3004 25.4173C72.3004 13.979 63.1685 5.00478 51.7752 4.64167L54.8775 23.4201ZM74.5279 25.4173C74.5279 38.0486 64.106 48.3975 51.394 48.3975C38.6924 48.3975 28.26 38.0486 28.26 25.4173C28.26 12.7859 38.6819 2.43701 51.394 2.43701C64.1138 2.43701 74.5279 12.7859 74.5279 25.4173Z" fill="white"/>
<path d="M4.84931 60.7952L4.43673 69.9769C4.39758 70.8588 5.0478 71.0403 5.85207 71.0922V71.4034C5.28283 71.3775 4.71352 71.3256 4.14167 71.3256C3.57235 71.3256 3.02139 71.3775 2.45215 71.4034V71.0922C3.25903 71.0403 3.82826 70.8588 3.86749 69.9769L4.30094 61.288C4.35844 60.3542 3.68987 60.2246 2.8856 60.1986V59.8614C3.37655 59.8614 3.84923 59.8874 4.34009 59.8874C4.77102 59.8874 5.18359 59.8614 5.59618 59.8096L8.86038 68.9654L12.182 59.8096L12.5555 59.8614C12.8505 59.8614 13.1665 59.8874 13.4799 59.8874C13.9525 59.8874 14.4251 59.8614 14.8952 59.8614V60.1986C14.0909 60.2246 13.4616 60.3802 13.4799 61.288L13.6783 69.9769C13.7175 70.8588 14.2659 71.0403 15.112 71.0922V71.4034L14.386 71.3516C13.9525 71.3256 13.5399 71.2997 13.1064 71.2997C12.6756 71.2997 12.2421 71.3256 11.8086 71.3516L11.1009 71.4034V71.0922C11.9287 71.0403 12.5371 70.8588 12.5162 69.9769L12.3805 60.7952L8.68277 71.0403H8.4687L4.84931 60.7952Z" fill="#231F20"/>
<path d="M24.5493 64.4007V70.5219C24.5493 71.0925 23.7424 71.1184 23.3298 71.1444V71.4037C23.9199 71.3778 24.5075 71.3259 25.0977 71.3259C25.6878 71.3259 26.278 71.3778 26.8682 71.4037V71.1444C26.1997 71.0925 25.6304 71.0147 25.6304 70.2366V66.7869C25.6304 65.8013 25.7871 63.8301 27.1241 63.7264C27.3591 63.7004 27.7143 63.8301 27.7325 64.1154C27.7325 64.271 27.6542 64.4007 27.6542 64.5563C27.6542 64.8935 27.9676 65.127 28.2835 65.1529C28.7562 65.1529 28.9703 64.7379 28.9703 64.3229C28.9703 63.5967 28.3018 63.052 27.5759 63.052C26.5914 63.052 25.8262 63.7264 25.5495 64.6342C25.5495 64.0635 25.492 63.4929 25.4319 62.9482C24.7452 63.1298 24.0375 63.3114 23.3298 63.3373V63.5967C24.0375 63.6226 24.5493 63.5967 24.5493 64.4007Z" fill="#231F20"/>
<path d="M34.3783 62.8965L33.924 63.7524C33.4722 63.3374 32.963 63.0521 32.2945 63.0521C30.033 63.0521 28.9702 65.2827 28.9702 67.2798C28.9702 69.2511 29.8946 71.5595 32.2135 71.5595C33.8665 71.5595 34.6917 70.1848 34.8484 68.7323H34.1799C33.984 69.8217 33.5897 71.0148 32.2553 71.0148C30.3856 71.0148 30.1897 68.6545 30.1897 67.2798C30.1897 65.983 30.5057 63.4671 32.2736 63.4671C33.5113 63.4671 34.1015 64.5305 34.3183 65.568H34.6525V62.8965H34.3783Z" fill="#231F20"/>
<path d="M41.6693 68.706H42.3588C42.1028 70.4438 41.0817 71.5591 39.2721 71.5591C36.9532 71.5591 36.0288 69.4064 36.0288 67.4092C36.0288 65.412 36.914 63.0518 39.2721 63.0518C41.5335 63.0518 42.3378 65.0749 42.3195 67.0201H37.089C37.1308 68.6282 37.3449 71.0145 39.468 71.0145C40.8259 71.0145 41.4944 69.8992 41.6693 68.706ZM41.2567 66.4236V66.1902C41.1392 64.9711 40.7475 63.4927 39.2329 63.4927C37.7967 63.4927 37.2091 65.2305 37.1491 66.4236H41.2567Z" fill="#231F20"/>
<path d="M50.8328 70.8849V71.1183C50.1251 71.2221 49.4566 71.2999 48.7672 71.5074C48.668 71.0146 48.5896 70.5218 48.5713 70.0031C48.1587 70.9108 47.3727 71.5074 46.3491 71.5074C44.1476 71.5074 43.3225 69.0952 43.3225 67.2796C43.3225 65.464 44.1686 63.1038 46.3491 63.1038C47.4119 63.1038 48.0203 63.7522 48.5113 64.6341V61.2882C48.5113 60.4841 48.0412 60.3804 47.2944 60.3804V60.1469L47.5085 60.0951C48.2162 60.0173 48.9056 59.9394 49.5924 59.7319V69.6918C49.5924 70.5996 49.9084 70.8849 50.8328 70.8849ZM48.5113 67.3315C48.5113 65.9568 48.2763 63.5706 46.4274 63.5706C44.6595 63.5706 44.4819 65.9569 44.4819 67.2278C44.4819 68.5246 44.6386 71.0405 46.4875 71.0405C48.3545 71.0405 48.5113 68.6802 48.5113 67.3315Z" fill="#231F20"/>
<path d="M57.3791 68.706H58.0658C57.9092 70.4438 56.7289 71.5591 54.9792 71.5591C52.6786 71.5591 51.7151 69.4064 51.7151 67.4092C51.7151 65.412 52.6212 63.0518 54.9792 63.0518C57.259 63.0518 58.045 65.0749 58.045 67.0201H52.817C52.7962 68.6282 53.0912 71.0145 55.1751 71.0145C56.5121 71.0145 57.2407 69.8992 57.3791 68.706ZM56.9848 66.4236C56.8673 65.1527 56.5513 63.4927 54.9584 63.4927C53.5247 63.4927 53.0338 65.1008 52.8771 66.268L52.8563 66.4236H56.9848Z" fill="#231F20"/>
<path d="M59.4812 71.5594L59.8729 70.8331C60.4449 71.3 61.1917 71.5075 61.9176 71.5075C63.3147 71.5075 64.6517 70.5997 64.6517 69.0953C64.6517 67.9541 63.8656 67.3835 62.863 66.9944L62.077 66.6832C61.3693 66.4238 60.2281 66.0347 60.2281 65.101C60.2281 64.1673 60.9749 63.5189 61.9176 63.5189C63.1371 63.5189 63.6281 64.5045 63.7482 65.5679H64.0824V62.9482H63.8056L63.5706 63.5967C63.0588 63.2854 62.4895 63.1039 61.8785 63.1039C60.5624 63.1039 59.3428 63.9598 59.3428 65.3345C59.3428 68.0838 63.7482 67.2797 63.7482 69.3547C63.7482 70.3663 62.8421 71.0406 61.8785 71.0406C60.4448 71.0406 59.8155 69.9772 59.5204 68.7322L59.1653 68.7582L59.1862 71.5594H59.4812Z" fill="#231F20"/>
<path d="M65.3987 66.9426H68.5427V66.3979H65.3987V66.9426Z" fill="#231F20"/>
<path d="M83.6597 68.706H84.3491C84.1924 70.392 82.9912 71.6369 81.2442 71.5591C78.9619 71.4294 77.9983 69.4842 77.9983 67.4092C77.9983 65.412 78.9044 63.0518 81.2442 63.0518C83.5239 63.0518 84.3282 65.0749 84.3282 67.0461H79.0794C79.0611 68.6282 79.3745 71.0144 81.4401 71.0144C82.8163 71.0144 83.4639 69.8992 83.6597 68.706ZM83.2471 66.4236C83.2289 65.1527 82.777 63.4927 81.2233 63.4927C79.8079 63.4927 79.2961 65.1267 79.1395 66.268L79.1186 66.4236H83.2471Z" fill="#231F20"/>
<path d="M86.3546 64.4268V70.2626C86.3546 71.0407 85.7828 71.0926 85.0959 71.1445V71.4298C85.7044 71.3779 86.2946 71.326 86.8847 71.326C87.4749 71.326 88.0651 71.3779 88.6735 71.4298V71.1445C88.005 71.0926 87.4148 71.0148 87.4148 70.2626V66.1386C87.4148 64.9196 88.0441 63.8302 89.4412 63.8302C90.7782 63.8302 91.0316 64.9974 91.0316 66.0867V70.522C91.0316 71.1185 90.2063 71.1185 89.7755 71.1445V71.4298C90.3631 71.3779 90.9532 71.326 91.5643 71.326C92.1727 71.326 92.7629 71.3779 93.3713 71.4298V71.1445C92.6846 71.0926 92.1152 71.0407 92.1152 70.2626V66.0349C92.1152 64.5046 91.3475 63.104 89.5979 63.104C88.6161 63.104 87.8666 63.6227 87.3365 64.4268V64.2193C87.3182 63.7524 87.279 63.3374 87.219 62.8965C86.5505 63.1559 85.8428 63.3115 85.1351 63.4152V63.6746C85.8245 63.6746 86.3546 63.6486 86.3546 64.4268Z" fill="#231F20"/>
<path d="M99.9781 71.3777L100.391 69.0433H100.114C99.7222 70.1327 99.2495 70.9886 97.9908 70.9886H95.6536L100.547 63.2334H94.9642L94.5909 65.3602H94.8859C95.2594 64.3746 95.6537 63.6484 96.8131 63.6484H99.0536L94.1782 71.3777H99.9781Z" fill="#231F20"/>
<path d="M21.776 68.706H22.4654C22.3061 70.4438 21.1284 71.5591 19.3787 71.5591C17.0573 71.5591 16.1355 69.4323 16.1355 67.4092C16.1355 65.412 17.018 63.0518 19.3787 63.0518C21.6585 63.0518 22.4445 65.0749 22.4445 67.0201H17.2166C17.1957 68.6282 17.4907 71.0145 19.5746 71.0145C20.8907 71.0145 21.6767 69.8992 21.776 68.706ZM21.3843 66.4236C21.3033 65.1527 20.9299 63.4927 19.3396 63.4927C17.8433 63.4927 17.4124 65.2305 17.2557 66.4236H21.3843Z" fill="#231F20"/>
<path d="M76.852 68.0838C76.852 70.1588 75.3949 71.3778 72.8697 71.3778H68.6289V71.0406C69.7936 70.9628 70.0495 70.7812 70.0495 69.8994V61.3402C70.0495 60.4842 69.7962 60.2767 68.6289 60.2249V59.8877H72.9925C75.0998 59.8877 76.2906 60.8992 76.2906 62.6629C76.2906 63.882 75.7109 64.712 74.4496 65.2566C75.9328 65.516 76.852 66.6054 76.852 68.0838ZM72.4885 65.127C74.2564 65.127 75.0398 64.3748 75.0398 62.7148C75.0398 61.0808 74.3555 60.3546 72.8228 60.3546H71.1985V65.127H72.4885ZM71.1985 69.9253C71.1985 70.7294 71.3813 70.885 72.3788 70.885H73.0186C74.6272 70.885 75.5986 69.8475 75.5986 68.1616C75.5986 66.4238 74.763 65.5938 73.0107 65.5938H71.1985V69.9253Z" fill="#231F20"/>
<path d="M74.5279 25.4173C74.5279 38.0486 64.106 48.3975 51.394 48.3975C38.6924 48.3975 28.26 38.0486 28.26 25.4173C28.26 12.7859 38.6819 2.43701 51.394 2.43701C64.1138 2.43701 74.5279 12.7859 74.5279 25.4173ZM46.2679 27.985L46.2392 28.0369L46.3123 28.011L50.7437 25.4173L49.9577 24.9763L46.2679 27.985ZM66.498 33.8987H66.5816L66.5345 33.8209L53.0913 24.8466L52.0703 25.4173L66.498 33.8987ZM51.2556 9.33626L51.219 9.2844L51.1798 9.33626L50.245 24.3538L51.078 24.8466L51.2556 9.33626ZM65.2733 9.20658L65.302 9.2844C66.3961 10.2959 67.4329 11.3853 68.3704 12.5525C71.2899 16.1837 72.8122 20.7745 72.8122 25.4173C72.8122 29.0744 71.8278 32.6018 70.0677 35.7921L70.308 36.233L69.8066 36.2589C65.9601 42.6395 58.8938 46.6597 51.394 46.6597C43.8837 46.6597 36.8566 42.6654 33.0074 36.2589L32.5348 36.233L32.7306 35.7921C31.6078 33.743 30.8374 31.5643 30.3831 29.2819L30.3387 29.23L30.3099 29.3078C30.6077 31.72 31.3754 34.0802 32.5348 36.233C36.3186 43.2879 43.3745 47.4378 51.4044 47.4378C63.5942 47.4378 73.5356 37.5039 73.5356 25.4173C73.5356 19.2183 70.3184 12.9675 65.349 9.20658H65.2733ZM51.0414 4.66761C39.6847 4.8751 30.5136 14.0828 30.5136 25.4173C30.5136 28.9447 31.4876 32.3425 33.1015 35.4549L47.5918 23.6535L48.78 24.3279L32.9526 35.8699L32.8873 36.0255H33.0649L51.0598 25.9619L51.0231 29.5672L33.4801 36.1033C37.1987 42.3023 44.1422 46.1409 51.394 46.1409C58.6822 46.1409 65.5344 42.3023 69.2974 36.1033L51.7648 29.5672L51.7178 25.9619L69.7622 36.0255H69.9189L69.8457 35.8958L54.008 24.3279L55.1857 23.6535L69.6865 35.4549C71.3473 32.3684 72.3004 28.9447 72.3004 25.4173C72.3004 13.979 63.1685 5.00478 51.7752 4.64167L54.8148 23.031L51.71 24.8466L51.4854 4.30449L51.394 4.20074L51.3104 4.30449L49.1221 23.6795L47.9548 23.031L51.0414 4.66761ZM36.6242 42.3023C32.1274 37.8152 29.5396 31.7978 29.5396 25.4173C29.5396 13.4603 39.3583 3.70794 51.394 3.70794C61.9359 3.70794 70.919 11.2815 73.5539 21.2155L73.6087 21.2414L73.6374 21.1895C71.5326 10.685 62.252 2.95577 51.394 2.95577C38.9613 2.95577 28.7718 13.0712 28.7718 25.4173C28.7718 31.9274 31.6835 38.0745 36.5772 42.3801H36.6425L36.6242 42.3023Z" fill="#231F20"/>
</svg>
