<svg width="82" height="65" viewBox="0 0 82 65" fill="none" xmlns="http://www.w3.org/2000/svg">
<path d="M80.348 53.1553V54.9407H76.6336V62.7934H74.1293V54.9407H70.4167V53.1553H80.348Z" fill="#0E0C0B"/>
<path d="M71.4856 61.007V62.7932H63.5278V53.1553H66.0303V61.007H71.4856Z" fill="#0E0C0B"/>
<path d="M23.2786 61.007V62.7932H14.9175V53.1553H23.1208V54.9405H17.4219V57.0588H22.6299V58.7872H17.4219V61.007H23.2786Z" fill="#0E0C0B"/>
<path d="M9.16559 57.6491C8.97333 57.8378 8.7442 57.9287 8.38945 57.9287H4.97364V54.9909H7.6713C8.4745 54.9909 8.90362 55.0818 9.19271 55.317C9.47671 55.5436 9.61313 55.8899 9.61313 56.3998C9.61313 56.9283 9.47291 57.352 9.16559 57.6491ZM10.4317 59.2138C11.5037 58.6314 12.1658 57.4857 12.1658 56.2827C12.1658 55.2803 11.8738 54.5023 11.2621 53.9914C10.5506 53.401 9.57551 53.1553 7.92847 53.1553H2.18609L2.08374 53.737C2.08374 53.737 2.18609 53.91 2.30495 54.1181C2.48285 54.4258 2.46824 54.5157 2.46824 54.7209V62.7934H4.97364V59.7075H8.08502L9.7553 62.7934H12.5128L10.4317 59.2138Z" fill="#0E0C0B"/>
<path d="M33.7636 53.1534V59.5467C33.18 58.8105 32.5664 58.1001 31.5299 56.9601C30.6874 56.0331 28.9293 54.1317 28.0254 53.1553H25.6076L25.5076 53.7358C25.5076 53.7358 25.6107 53.909 25.7285 54.1181C25.8629 54.3465 25.8899 54.4557 25.8942 54.5798L25.8922 62.7934L28.1418 62.7855V56.4008C28.5916 57.0008 29.3918 57.9211 29.9245 58.5006C30.9867 59.6503 32.5914 61.4433 33.8402 62.7934H36.002V53.1553L33.7635 53.1533" fill="#0E0C0B"/>
<path d="M58.2823 53.1553V59.0494C58.2823 59.7065 58.1516 60.0975 57.8307 60.3974C57.4257 60.7747 56.7562 60.9556 55.7897 60.9556C54.8085 60.9556 54.1212 60.7747 53.718 60.3974C53.3983 60.0975 53.267 59.7056 53.267 59.0494V53.1553H50.4792L50.3779 53.737C50.3779 53.737 50.4823 53.91 50.5982 54.1181C50.7246 54.3388 50.7547 54.4471 50.7602 54.5671L50.7627 59.1394C50.7627 61.6593 52.4686 62.9415 55.7559 62.9415H55.8253C59.1163 62.9415 60.7314 61.695 60.7314 59.1394V53.1553H58.2823Z" fill="#0E0C0B"/>
<path d="M41.7737 59.3076C42.4321 57.6657 43.0924 56.1126 43.6238 54.9076C44.1564 56.1126 44.8186 57.6657 45.4758 59.3076H41.7737ZM45.1898 53.1553H42.0596C41.1115 55.1167 39.4596 58.7377 37.915 62.7934H40.4285C40.6286 62.2455 40.8409 61.6854 41.0545 61.125H46.1937C46.4104 61.6854 46.6221 62.2455 46.8209 62.7934H49.335C47.7886 58.7377 46.1379 55.1167 45.1898 53.1553Z" fill="#0E0C0B"/>
<path d="M45.2216 3.08924L45.2661 3.08424C45.2636 3.08424 45.0634 3.24182 44.5469 3.23931C43.9341 3.23431 42.6638 3.2093 41.6482 3.2043C39.77 3.19179 37.5311 3.22681 36.4858 3.27683C35.9297 3.30435 35.8976 3.36438 35.5417 3.74707L35.7172 3.46943L36.0014 3.19179L36.2806 3.11675C36.5896 3.08424 38.9545 3.02421 40.9192 3.02421C42.518 3.02421 44.1416 3.05922 44.9497 3.09174L45.2216 3.08924Z" fill="white"/>
<path d="M45.4788 24.1409L45.4714 24.1582C45.464 24.178 44.5299 26.2859 43.45 28.4977C42.4837 30.4794 41.4334 32.5032 41.0281 33.2826L41.0084 33.3172L40.9194 33.4483L40.8329 33.3197L40.7711 33.2034C39.6319 31.0213 38.846 29.4403 38.3864 28.4977C37.3534 26.3799 36.4341 24.3141 36.3699 24.1582L36.36 24.1384C36.2438 23.8638 36.1499 23.6461 36.1499 23.416C36.1499 23.1859 36.2587 22.931 36.3674 22.6911L36.4218 22.5698C37.0742 21.0879 37.7315 19.6727 38.3765 18.3639C39.5133 16.0556 40.8206 13.5518 40.8329 13.5296L40.9219 13.396L41.0133 13.5296C41.0232 13.5494 42.3033 15.9814 43.4623 18.3614C44.4854 20.4595 45.3775 22.4659 45.4764 22.6886C45.6073 22.988 45.6889 23.1884 45.6889 23.4283C45.6889 23.6609 45.6098 23.8415 45.4788 24.1409ZM45.6839 22.5971C45.6172 22.4511 44.7078 20.3951 43.6674 18.2625C42.5331 15.9393 41.2654 13.5222 41.2135 13.4232L40.9219 13.109L40.6303 13.4232C40.5784 13.5246 39.281 16.0135 38.1739 18.2625C37.0692 20.504 36.2167 22.4733 36.1623 22.5971C36.0486 22.8445 35.925 23.1339 35.925 23.416C35.925 23.7005 36.0313 23.9454 36.1598 24.2473C36.2216 24.3932 37.1384 26.4615 38.1813 28.5967C39.3156 30.9223 40.5809 33.3271 40.6303 33.4211L40.9194 33.7378L41.2085 33.4236C41.2604 33.3221 42.5208 30.9198 43.6551 28.5967C44.693 26.4665 45.6123 24.4031 45.679 24.2497C45.8199 23.9256 45.9162 23.7153 45.9162 23.4283C45.9162 23.1413 45.8223 22.9113 45.6839 22.5971Z" fill="#231F20"/>
<path d="M57.348 24.4698C57.1108 24.9993 55.0572 29.0642 53.2062 32.4512C51.2737 35.9866 46.9787 43.154 46.5759 43.7131C46.2003 44.2376 45.9606 44.2599 45.5973 44.2921C45.2167 44.3267 42.4514 44.3861 40.9217 44.3861C39.5032 44.3861 36.8565 44.3465 36.2461 44.2921C35.8631 44.2574 35.653 44.2401 35.265 43.7107C34.8425 43.1317 30.8489 36.479 28.6372 32.4512C26.5169 28.5891 24.9971 25.5609 24.4954 24.4673C24.3076 24.0591 24.2186 23.7276 24.2186 23.4233C24.2186 23.1388 24.3076 22.8072 24.4954 22.3768C24.7178 21.8671 27.1199 17.1367 28.6372 14.3954C30.7377 10.6076 34.7609 3.79401 35.2354 3.17301C35.569 2.73758 35.6876 2.60893 36.1992 2.55697C36.8417 2.49264 39.6144 2.46048 40.9217 2.46048C42.4465 2.46048 44.9795 2.49017 45.5726 2.5545L45.6319 2.56192C46.0174 2.6015 46.1953 2.62129 46.5784 3.13838C47.0281 3.73958 50.987 10.3676 53.2062 14.3954C54.8249 17.3346 56.7351 21.1001 57.3505 22.3817C57.5902 22.8815 57.6248 23.2476 57.6248 23.4233C57.6248 23.6459 57.5902 23.9255 57.348 24.4698ZM57.5581 22.2827C56.9427 20.9987 55.03 17.2282 53.4089 14.2841C51.1847 10.2489 47.2159 3.60597 46.7637 2.99983C46.3189 2.4011 46.0693 2.37389 45.6566 2.33183L45.5973 2.3244C44.9968 2.26008 42.4514 2.22792 40.9217 2.22792C39.6119 2.22792 36.8269 2.26255 36.1769 2.32688C35.5665 2.38873 35.401 2.57676 35.0525 3.03199C34.5731 3.65793 30.5376 10.4888 28.4346 14.2841C26.9147 17.0278 24.5078 21.7731 24.2829 22.2827C24.0827 22.7429 23.9863 23.1066 23.9863 23.4233C23.9863 23.7622 24.0827 24.1234 24.2853 24.5638C24.7895 25.6598 26.3093 28.6931 28.4346 32.5625C30.6513 36.5977 34.6547 43.2678 35.0797 43.8467C35.527 44.4603 35.8211 44.4875 36.2264 44.5222C36.8417 44.5766 39.4983 44.6187 40.9217 44.6187C42.4563 44.6187 45.234 44.5568 45.6171 44.5222C45.9976 44.4875 46.3263 44.4578 46.7637 43.8467C47.169 43.2876 51.4739 36.1029 53.4089 32.5625C55.2623 29.1706 57.3208 25.0958 57.5581 24.5638C57.82 23.98 57.8571 23.6707 57.8571 23.4233C57.8571 23.2278 57.8175 22.8221 57.5581 22.2827Z" fill="#231F20"/>
<path d="M36.2043 2.90625C36.0423 2.92246 35.9823 2.95398 35.9214 2.98354C35.8395 3.02741 35.7575 3.07025 35.6318 3.26478C35.2546 3.82549 31.3789 10.2031 28.911 14.6897C27.1603 17.8738 25.4353 21.2485 24.7009 22.8067C24.5038 23.2186 24.478 23.4924 24.478 23.6173C24.478 23.8433 24.5514 24.1171 24.7009 24.4299C25.4353 25.989 27.1603 29.3628 28.911 32.5468C31.3789 37.0354 35.2384 43.4253 35.6394 43.9736C35.6966 44.0594 35.7537 44.1262 35.8042 44.1825C35.8956 44.2759 35.9776 44.3321 36.0709 44.3627C36.1681 44.3932 36.3605 44.3731 36.5214 44.3627C36.6091 44.3531 36.7177 44.3531 36.8024 44.3627C37.7968 44.396 39.3237 44.4342 40.9391 44.4304C42.9394 44.4304 45.2854 44.379 45.6359 44.3389L45.6931 44.3294C45.8274 44.3131 45.9036 44.294 45.9436 44.273C46.0236 44.2406 46.0893 44.175 46.2579 43.9471C46.6532 43.4007 50.4956 37.04 52.9635 32.5515C54.7142 29.3674 56.4392 25.9936 57.1745 24.4345C57.3707 24.0226 57.4002 23.6983 57.4002 23.5715C57.4002 23.3483 57.324 23.1263 57.1745 22.8116C56.4392 21.2534 54.7142 17.8787 52.9635 14.6946C50.4956 10.208 46.6389 3.81584 46.2379 3.26943C46.135 3.12067 46.0455 3.02161 45.9569 2.95677C45.9093 2.92149 45.8569 2.89569 45.8036 2.87948C45.7045 2.84896 45.4854 2.86803 45.3264 2.87948C45.2406 2.88997 45.1301 2.88901 45.0473 2.87948C44.2253 2.84515 42.566 2.81173 40.9391 2.81173C38.9332 2.81173 36.5186 2.87389 36.2043 2.90346V2.90625ZM40.9391 13.0915C41.0544 13.0915 41.1334 13.2185 41.2373 13.413C42.9727 16.7582 44.1471 19.0678 45.7969 22.7725C45.935 23.09 46.035 23.3236 46.035 23.6201C46.035 23.9196 45.9312 24.1476 45.7921 24.4585C44.1395 28.1642 42.9689 30.4727 41.2325 33.8179C41.1306 34.0106 41.0477 34.1364 40.9344 34.1392C40.821 34.1392 40.7401 34.0125 40.641 33.8179C38.9017 30.4718 37.7311 28.162 36.0804 24.4573C35.9395 24.1407 35.8375 23.9062 35.8375 23.6087C35.8423 23.3198 35.9414 23.0833 36.0814 22.7725C37.7311 19.0678 38.9017 16.7582 40.642 13.413C40.7401 13.2204 40.8229 13.0943 40.9344 13.0924H40.9391V13.0915Z" fill="url(#paint0_radial)"/>
<path d="M34.2097 23.6076C34.0659 23.7421 33.8173 23.8737 33.2057 23.8737C32.6647 23.8737 28.0623 23.8642 25.8667 23.8642C25.5477 23.8642 25.1143 23.8385 25.1143 24.3487C25.1143 24.6471 25.3714 25.2496 25.9077 26.2938C28.8176 31.9944 32.0523 37.6884 35.5184 43.2545C35.5184 43.2545 36.0461 44.1098 36.1014 44.1746C36.1566 44.2414 36.2214 44.271 36.3528 44.271C36.3528 44.271 38.5493 40.2402 40.3257 35.846C38.3483 32.1966 36.5252 28.5882 34.8183 24.9598C34.8183 24.9598 34.3335 24.0539 34.3154 23.6963C34.3116 23.6477 34.3107 23.6334 34.3154 23.5867C34.3192 23.5476 34.3145 23.5303 34.3021 23.5303C34.2849 23.5303 34.2545 23.5598 34.2097 23.6027" fill="url(#paint1_linear)"/>
<path d="M56.9907 23.6726C56.9117 23.7517 56.6907 23.871 56.1954 23.871H50.1527C47.3771 23.871 47.6581 23.7967 46.939 25.2653C46.6189 25.9156 46.2884 26.686 45.9531 27.3163C43.5328 32.3828 37.6264 42.5825 36.8292 43.8499C36.5282 44.3247 36.4862 44.3495 36.7034 44.3495C36.7034 44.3495 38.7075 44.4219 40.9392 44.4219C44.4215 44.4219 45.6674 44.3276 45.6674 44.3276C47.6839 41.1798 52.5054 33.201 55.9439 26.2894C56.7364 24.6959 57.1317 24.0026 57.0946 23.6621C57.0908 23.6364 57.0793 23.627 57.065 23.627C57.0422 23.627 57.0107 23.6507 56.9907 23.6726Z" fill="url(#paint2_linear)"/>
<path d="M45.0455 3.38791C43.3377 6.03699 37.4379 17.1665 35.028 22.355C34.7328 22.9911 34.5823 23.3019 34.5823 23.6099H35.8377C35.8424 23.3209 35.9415 23.0845 36.0815 22.7736C37.7312 19.0689 38.9019 16.7593 40.6421 13.4141C40.7402 13.2215 40.8231 13.0955 40.9345 13.0936L41.4231 11.6709C43.1234 7.42545 45.5075 2.96372 45.5075 2.96372C45.5027 2.96372 45.4979 2.96372 45.4922 2.96372C45.3484 2.96372 45.2436 3.0818 45.0455 3.38791Z" fill="url(#paint3_linear)"/>
<path d="M40.9343 13.0945H40.9391C41.0543 13.0945 41.1334 13.2212 41.2372 13.4157C42.9727 16.7609 44.1471 19.0705 45.7968 22.7752C45.9349 23.0927 46.0349 23.3263 46.0349 23.6229C46.0349 23.6229 46.0349 23.6231 46.0349 23.624C46.0349 23.6231 46.0349 23.6229 46.0349 23.6229H47.2856C47.2856 23.3148 47.1427 23.0127 46.8493 22.3852C45.1834 18.8417 43.4394 15.3905 41.4258 11.6715L40.9343 13.0945Z" fill="url(#paint4_linear)"/>
<path d="M35.0195 24.8658C36.6883 28.4065 38.4237 31.8489 40.4392 35.5688L40.9345 34.1422C40.8212 34.1422 40.7402 34.0154 40.6412 33.8209C38.9019 30.4747 37.7313 28.1652 36.0806 24.4605C35.9396 24.1439 35.8377 23.9092 35.8377 23.6117H34.5823C34.5795 23.9206 34.7242 24.2345 35.0195 24.8677" fill="url(#paint5_linear)"/>
<path d="M35.0195 24.8658C36.6883 28.4065 38.4237 31.8489 40.4392 35.5688L40.9345 34.1422C40.8212 34.1422 40.7402 34.0154 40.6412 33.8209C38.9019 30.4747 37.7313 28.1652 36.0806 24.4605C35.9396 24.1439 35.8377 23.9092 35.8377 23.6117H34.5823C34.5795 23.9226 34.7242 24.2364 35.0195 24.8696" fill="url(#paint6_linear)"/>
<path d="M46.0352 23.6229C46.0352 23.9223 45.9313 24.1503 45.7923 24.4612C44.1397 28.1669 42.9691 30.4755 41.2327 33.8207C41.1308 34.0133 41.0479 34.1391 40.9345 34.142L40.4392 35.5686C38.6457 40.0724 36.353 44.276 36.353 44.276C36.4892 44.2855 36.6521 44.1148 36.8464 43.8211C36.8969 43.74 36.9645 43.6294 37.0455 43.4921C38.3342 41.2969 44.5397 29.8279 46.8362 24.8845C47.1315 24.2484 47.2858 23.9318 47.2858 23.6229H46.0352Z" fill="url(#paint7_linear)"/>
<path d="M23.6638 23.6171C23.6638 23.8955 23.7238 24.2531 23.9667 24.7814C24.542 26.0249 26.146 29.1936 28.2053 32.9402C30.4475 37.0302 34.5252 43.8314 34.9824 44.4551C35.1652 44.7106 35.3262 44.8642 35.4796 44.9614L35.8044 44.1822C35.7539 44.1259 35.6967 44.0592 35.6396 43.9734C35.2386 43.4251 31.3791 37.0351 28.9111 32.5466C27.1604 29.3625 25.4355 25.9887 24.7011 24.4296C24.5516 24.1168 24.4782 23.8431 24.4782 23.6171H23.6638Z" fill="url(#paint8_linear)"/>
<path d="M35.4795 44.9619C35.6995 45.103 35.9014 45.1192 36.1443 45.1412C36.7501 45.1946 39.4095 45.2373 40.9392 45.2373C42.4661 45.2373 45.3331 45.1764 45.7294 45.1412C45.9151 45.124 46.0885 45.1077 46.2637 45.0266L45.9437 44.2686C45.9037 44.2896 45.8275 44.3087 45.6932 44.3249L45.636 44.3342C45.2855 44.3743 42.9395 44.426 40.9392 44.426C39.3238 44.426 37.7969 44.3916 36.8025 44.3582C36.7178 44.3582 36.6092 44.3487 36.5215 44.3582C36.3606 44.3735 36.1682 44.3935 36.071 44.3582C35.9777 44.3277 35.8957 44.2715 35.8043 44.178L35.4795 44.957V44.9619Z" fill="url(#paint9_linear)"/>
<path d="M45.957 2.95173C46.0456 3.01657 46.1352 3.11587 46.238 3.26463C46.639 3.81104 50.4957 10.2029 52.9636 14.6896C54.7143 17.8736 56.4393 21.2484 57.1746 22.8065C57.3242 23.1212 57.4004 23.3435 57.4004 23.5667L58.211 23.6172C58.211 23.3921 58.1605 22.9849 57.9062 22.4557C57.2927 21.176 55.3296 17.3043 53.6761 14.2957C51.4577 10.2734 47.3667 3.42092 46.8933 2.78201C46.6457 2.4473 46.459 2.28897 46.2685 2.20697L45.957 2.95173Z" fill="url(#paint10_linear)"/>
<path d="M36.0956 2.0897C35.888 2.11091 35.7308 2.14556 35.5984 2.20244L35.9213 2.9834C35.9823 2.95351 36.0423 2.92165 36.2042 2.90526C36.5185 2.87537 38.9331 2.81276 40.9391 2.81276C42.5659 2.81276 44.2252 2.84631 45.0472 2.88101C45.1301 2.89065 45.2406 2.89065 45.3263 2.88101C45.4854 2.86559 45.7044 2.84631 45.8035 2.88101C45.8568 2.8974 45.9092 2.92348 45.9568 2.95916L46.2683 2.20621C46.0883 2.12233 45.9102 2.1127 45.7063 2.09535C45.0758 2.03558 42.3592 1.99508 40.9391 1.99508C39.6856 1.99508 36.7776 2.02782 36.0956 2.09723" fill="url(#paint11_linear)"/>
<path d="M34.951 2.81647C34.4823 3.42868 30.397 10.3297 28.2053 14.2957C26.6547 17.0878 24.1972 21.9245 23.9667 22.4557C23.7333 22.9878 23.6638 23.3416 23.6638 23.6172H24.4782C24.4782 23.4923 24.5039 23.2185 24.7011 22.8065C25.4355 21.2484 27.1604 17.8736 28.9111 14.6896C31.3791 10.2029 35.2548 3.82534 35.632 3.26463C35.7577 3.0701 35.8396 3.02726 35.9216 2.98339L35.5986 2.21093C35.3443 2.31964 35.191 2.50655 34.951 2.81647Z" fill="url(#paint12_linear)"/>
<path d="M57.1748 24.4298C56.4394 25.9889 54.7145 29.3627 52.9638 32.5468C50.4958 37.0353 46.6534 43.3958 46.2582 43.9422C46.0896 44.1701 46.0239 44.2359 45.9438 44.2683C45.9438 44.2683 45.9448 44.2683 45.9438 44.2683L46.2639 45.0264C46.4611 44.9405 46.6639 44.7776 46.8935 44.4553C47.3392 43.8431 51.7284 36.4983 53.6762 32.9405C55.6165 29.3845 57.6853 25.2851 57.9063 24.7816C58.1892 24.1513 58.2111 23.8433 58.2111 23.6173L57.4005 23.5668C57.4005 23.6936 57.371 24.0179 57.1748 24.4298Z" fill="url(#paint13_linear)"/>
<path d="M45.3267 2.8715C45.3429 2.87053 45.3544 2.86957 45.3734 2.86957C45.3734 2.86957 45.1658 3.02671 44.639 3.02479C44.0151 3.02093 42.7188 2.9949 41.6806 2.98912C39.7632 2.97755 37.481 3.01225 36.4142 3.06431C35.8475 3.09131 35.8113 3.15301 35.4531 3.54346L35.6312 3.26098C35.7579 3.06528 35.8398 3.02189 35.9218 2.97755C35.9827 2.9467 36.0427 2.91585 36.2046 2.89946C36.519 2.86957 38.9336 2.80691 40.9405 2.80691C42.5673 2.80691 44.2257 2.84065 45.0477 2.87535C45.1305 2.87921 45.241 2.8821 45.3267 2.8715Z" fill="white"/>
<defs>
<radialGradient id="paint0_radial" cx="0" cy="0" r="1" gradientUnits="userSpaceOnUse" gradientTransform="translate(39.9158 11.7729) rotate(16.1762) scale(17.2426 18.7797)">
<stop stop-color="white"/>
<stop offset="0.481875" stop-color="white"/>
<stop offset="1" stop-color="#888A8F"/>
</radialGradient>
<linearGradient id="paint1_linear" x1="32.7207" y1="44.2193" x2="32.7207" y2="23.7217" gradientUnits="userSpaceOnUse">
<stop stop-color="#E0DFDE"/>
<stop offset="0.338501" stop-color="#9D9EA1"/>
<stop offset="0.694092" stop-color="#2D2D2F"/>
<stop offset="0.845169" stop-color="#191818"/>
<stop offset="0.948044" stop-color="#121312"/>
<stop offset="1" stop-color="#5F6369"/>
</linearGradient>
<linearGradient id="paint2_linear" x1="46.8316" y1="44.2171" x2="46.8316" y2="23.7032" gradientUnits="userSpaceOnUse">
<stop stop-color="#E0DFDE"/>
<stop offset="0.338501" stop-color="#9D9EA1"/>
<stop offset="0.694092" stop-color="#2D2D2F"/>
<stop offset="0.845169" stop-color="#191818"/>
<stop offset="0.953796" stop-color="#121312"/>
<stop offset="1" stop-color="#5F6369"/>
</linearGradient>
<linearGradient id="paint3_linear" x1="40.0451" y1="23.4813" x2="40.0451" y2="2.83297" gradientUnits="userSpaceOnUse">
<stop stop-color="#2D2D2F"/>
<stop offset="0.0400391" stop-color="#191818"/>
<stop offset="0.25209" stop-color="#231F20"/>
<stop offset="1" stop-color="#231F20"/>
</linearGradient>
<linearGradient id="paint4_linear" x1="44.1098" y1="23.6251" x2="44.1098" y2="11.6715" gradientUnits="userSpaceOnUse">
<stop stop-color="#6C6F76"/>
<stop offset="0.79538" stop-color="#191818"/>
<stop offset="0.920654" stop-color="#231F20"/>
<stop offset="1" stop-color="#231F20"/>
</linearGradient>
<linearGradient id="paint5_linear" x1="37.7588" y1="35.5912" x2="37.7588" y2="23.6316" gradientUnits="userSpaceOnUse">
<stop stop-color="#B7B7B8"/>
<stop offset="0.96315" stop-color="#5F6369"/>
<stop offset="1" stop-color="#2D2D2F"/>
</linearGradient>
<linearGradient id="paint6_linear" x1="42.4506" y1="31.537" x2="31.5796" y2="26.6391" gradientUnits="userSpaceOnUse">
<stop stop-color="#EEEEED"/>
<stop offset="0.109558" stop-color="#E9E8E8"/>
<stop offset="1" stop-color="#E9E8E8"/>
</linearGradient>
<linearGradient id="paint7_linear" x1="41.8199" y1="44.1454" x2="41.8199" y2="23.4921" gradientUnits="userSpaceOnUse">
<stop stop-color="white"/>
<stop offset="0.969345" stop-color="#B7B7B8"/>
<stop offset="0.991348" stop-color="#6C6F76"/>
<stop offset="1" stop-color="#6C6F76"/>
</linearGradient>
<linearGradient id="paint8_linear" x1="29.7341" y1="44.961" x2="29.7341" y2="23.6173" gradientUnits="userSpaceOnUse">
<stop stop-color="#5F6369"/>
<stop offset="0.969833" stop-color="#46474C"/>
<stop offset="1" stop-color="#83868B"/>
</linearGradient>
<linearGradient id="paint9_linear" x1="36.8443" y1="42.3804" x2="45.0578" y2="47.1178" gradientUnits="userSpaceOnUse">
<stop stop-color="#5F6369"/>
<stop offset="0.104965" stop-color="#212121"/>
<stop offset="1" stop-color="#212121"/>
</linearGradient>
<linearGradient id="paint10_linear" x1="43.0589" y1="8.07447" x2="61.2656" y2="18.0309" gradientUnits="userSpaceOnUse">
<stop stop-color="#51545A"/>
<stop offset="1" stop-color="#6C6F76"/>
</linearGradient>
<linearGradient id="paint11_linear" x1="45.7738" y1="3.94346" x2="35.8969" y2="1.1457" gradientUnits="userSpaceOnUse">
<stop stop-color="#51545A"/>
<stop offset="0.073761" stop-color="#9D9EA1"/>
<stop offset="0.501099" stop-color="#B5B5B7"/>
<stop offset="1" stop-color="#B7B7B8"/>
</linearGradient>
<linearGradient id="paint12_linear" x1="20.9058" y1="16.4227" x2="38.4899" y2="9.68054" gradientUnits="userSpaceOnUse">
<stop stop-color="#83868B"/>
<stop offset="0.986847" stop-color="#6C6F76"/>
<stop offset="1" stop-color="#B7B7B8"/>
</linearGradient>
<linearGradient id="paint13_linear" x1="52.0771" y1="45.0259" x2="52.0771" y2="23.5669" gradientUnits="userSpaceOnUse">
<stop stop-color="#212121"/>
<stop offset="0.969833" stop-color="#38383C"/>
<stop offset="1" stop-color="#6C6F76"/>
</linearGradient>
</defs>
</svg>
