<svg width="20" height="16" viewBox="0 0 20 16" fill="none" xmlns="http://www.w3.org/2000/svg">
<path d="M4.83428 0.850098C6.07188 0.850098 7.08848 1.2479 7.88408 2.0435C8.67968 2.80963 9.07748 3.82623 9.07748 5.0933C9.07748 5.68263 9.00381 6.27197 8.85647 6.8613C8.70914 7.45063 8.39974 8.33463 7.92828 9.5133L5.36468 15.8781H0.988875L2.88948 8.8945C2.15281 8.57037 1.57821 8.08417 1.16568 7.4359C0.753142 6.78763 0.546875 6.00677 0.546875 5.0933C0.546875 3.82623 0.944675 2.80963 1.74028 2.0435C2.56534 1.2479 3.59668 0.850098 4.83428 0.850098ZM15.2655 0.850098C16.5031 0.850098 17.5197 1.2479 18.3153 2.0435C19.1109 2.80963 19.5087 3.82623 19.5087 5.0933C19.5087 5.68263 19.435 6.27197 19.2877 6.8613C19.1403 7.45063 18.8309 8.33463 18.3595 9.5133L15.7959 15.8781H11.4201L13.3207 8.8945C12.584 8.57037 12.0094 8.08417 11.5969 7.4359C11.1843 6.78763 10.9781 6.00677 10.9781 5.0933C10.9781 3.82623 11.3759 2.80963 12.1715 2.0435C12.9965 1.2479 14.0279 0.850098 15.2655 0.850098Z" fill="#FFB61E"/>
</svg>
