<svg width="26" height="46" viewBox="0 0 26 46" fill="none" xmlns="http://www.w3.org/2000/svg">
<g opacity="0.8">
<path d="M13 0C5.83169 0 0 6.06972 0 13.5306V32.4694C0 39.9303 5.83169 46 13 46C20.1683 46 26 39.9303 26 32.4694V13.5306C26 6.06972 20.1683 0 13 0ZM23.3483 32.4694C23.3483 38.4082 18.7059 43.2401 13 43.2401C7.29408 43.2401 2.65166 38.4082 2.65166 32.4694V13.5306C2.65166 7.5918 7.29408 2.75989 13 2.75989C18.7059 2.75989 23.3483 7.5918 23.3483 13.5306V32.4694Z" fill="white"/>
<path d="M13.0003 9.15073C12.268 9.15073 11.6745 9.7684 11.6745 10.5307V16.8822C11.6745 17.6441 12.268 18.2621 13.0003 18.2621C13.7324 18.2621 14.3262 17.6441 14.3262 16.8822V10.5307C14.3262 9.7684 13.7327 9.15073 13.0003 9.15073Z" fill="white"/>
</g>
</svg>
