<svg width="35" height="19" viewBox="0 0 35 19" fill="none" xmlns="http://www.w3.org/2000/svg">
<path opacity="0.3" fill-rule="evenodd" clip-rule="evenodd" d="M17.1241 18.9205H19.2162C19.2162 18.9205 19.8482 18.8544 20.1708 18.5235C20.4677 18.2196 20.4582 17.649 20.4582 17.649C20.4582 17.649 20.4174 14.9778 21.7202 14.5844C23.0046 14.197 24.6538 17.1662 26.4019 18.3078C27.7238 19.1718 28.7282 18.9824 28.7282 18.9824L33.4023 18.9205C33.4023 18.9205 35.8474 18.7771 34.688 16.9478C34.593 16.7981 34.0128 15.5945 31.2128 13.1213C28.2821 10.5328 28.6745 10.9515 32.2049 6.47397C34.3549 3.74712 35.2145 2.08235 34.946 1.36932C34.6899 0.690212 33.1086 0.869711 33.1086 0.869711L27.8459 0.900909C27.8459 0.900909 27.4558 0.850269 27.1664 1.01485C26.8837 1.17626 26.7017 1.55244 26.7017 1.55244C26.7017 1.55244 25.8688 3.66257 24.7579 5.45711C22.4144 9.24378 21.4774 9.44362 21.0945 9.20851C20.2036 8.66052 20.4259 7.00705 20.4259 5.83239C20.4259 2.16283 21.0108 0.632792 19.287 0.236718C18.7149 0.105145 18.2939 0.0183348 16.831 0.0043185C14.9532 -0.0142192 13.3638 0.00974354 12.4639 0.429328C11.8652 0.708298 11.4033 1.32999 11.6846 1.36571C12.0324 1.41002 12.8202 1.56781 13.2379 2.10902C13.7772 2.80713 13.7582 4.37515 13.7582 4.37515C13.7582 4.37515 14.068 8.69488 13.0345 9.23157C12.3251 9.59961 11.352 8.84815 9.26278 5.4128C8.19227 3.65308 7.38404 1.70798 7.38404 1.70798C7.38404 1.70798 7.22819 1.34446 6.95023 1.15004C6.61287 0.914473 6.14153 0.839419 6.14153 0.839419L1.14058 0.870615C1.14058 0.870615 0.389845 0.89051 0.114258 1.20113C-0.130919 1.47739 0.0947769 2.04889 0.0947769 2.04889C0.0947769 2.04889 4.01001 10.7652 8.44315 15.1578C12.508 19.185 17.1241 18.9205 17.1241 18.9205Z" fill="black"/>
</svg>
